<mxfile host="app.diagrams.net" agent="Mozilla/5.0 (Windows NT 10.0; Win64; x64) AppleWebKit/537.36 (KHTML, like Gecko) Chrome/133.0.0.0 Safari/537.36" version="26.1.0">
  <diagram name="Page-1" id="CLXzgDMyPDMOGc86WNe9">
    <mxGraphModel dx="1434" dy="746" grid="0" gridSize="10" guides="1" tooltips="1" connect="1" arrows="1" fold="1" page="1" pageScale="1" pageWidth="850" pageHeight="1100" math="0" shadow="0">
      <root>
        <mxCell id="0" />
        <mxCell id="1" parent="0" />
        <mxCell id="ePEVCqxk2R03BDZPWFC2-1" value="&lt;p&gt;&lt;br&gt;&lt;/p&gt;" style="rounded=0;whiteSpace=wrap;html=1;fillColor=#dae8fc;strokeColor=#6c8ebf;align=center;verticalAlign=top;" vertex="1" parent="1">
          <mxGeometry x="235" y="80" width="444" height="105" as="geometry" />
        </mxCell>
        <mxCell id="ePEVCqxk2R03BDZPWFC2-2" value="" style="rounded=0;whiteSpace=wrap;html=1;" vertex="1" parent="1">
          <mxGeometry x="364" y="141" width="243" height="44" as="geometry" />
        </mxCell>
        <mxCell id="ePEVCqxk2R03BDZPWFC2-5" value="" style="group" vertex="1" connectable="0" parent="1">
          <mxGeometry x="372" y="124" width="77" height="30" as="geometry" />
        </mxCell>
        <mxCell id="ePEVCqxk2R03BDZPWFC2-3" value="" style="rounded=0;whiteSpace=wrap;html=1;" vertex="1" parent="ePEVCqxk2R03BDZPWFC2-5">
          <mxGeometry width="69.37623762376238" height="22.30769230769231" as="geometry" />
        </mxCell>
        <mxCell id="ePEVCqxk2R03BDZPWFC2-4" value="rApp SDK" style="rounded=0;whiteSpace=wrap;html=1;" vertex="1" parent="ePEVCqxk2R03BDZPWFC2-5">
          <mxGeometry x="7.623762376237623" y="7.6923076923076925" width="69.37623762376238" height="22.30769230769231" as="geometry" />
        </mxCell>
        <mxCell id="ePEVCqxk2R03BDZPWFC2-6" value="&lt;font style=&quot;font-size: 17px;&quot;&gt;Non Realtime RIC&lt;/font&gt;" style="text;html=1;align=center;verticalAlign=middle;whiteSpace=wrap;rounded=0;fontSize=14;" vertex="1" parent="1">
          <mxGeometry x="453" y="150" width="152" height="30" as="geometry" />
        </mxCell>
        <mxCell id="ePEVCqxk2R03BDZPWFC2-7" value="&lt;span&gt;Service Management and Orchestration Framework&lt;/span&gt;" style="text;html=1;align=center;verticalAlign=middle;whiteSpace=wrap;rounded=0;fontSize=16;fontStyle=1" vertex="1" parent="1">
          <mxGeometry x="252" y="87" width="415" height="30" as="geometry" />
        </mxCell>
      </root>
    </mxGraphModel>
  </diagram>
</mxfile>
